<svg width="163" height="364" viewBox="0 0 163 364" fill="none" xmlns="http://www.w3.org/2000/svg">
<g clip-path="url(#clip0)">
<path d="M45.5 87.0999C45.5 87.0999 40.2 111.1 39.7 115.3C39.2 119.5 30.8 166.8 30.8 166.8L21.5 165.1L23.4 112.3L31.5 86.8999L45.5 87.0999Z" fill="#FE9067"/>
<path d="M30.8 175.5C30.8 175.5 35.4 178 37 184.2C38.2 189.1 35.6 195.5 34.2 197.6C33.4 198.9 32.3 198.1 32.1 196.7C31.4 191.7 31.5 189.3 31 188.3C30.7 187.7 32.6 189.3 29.3 187.8L28.6 196.2C25.1 195.3 19.6 195.4 19.2 188.4C19 184.9 21.1 178.3 21.1 178.3C21.1 178.3 20.9 166.8 21.6 155.1L32.3 158C31.7 165.1 30.8 171.7 30.8 175.5Z" fill="#FE9067"/>
<path d="M117.2 97.4C117.2 97.4 122.5 121.4 123 125.6C123.6 129.8 131.9 177 131.9 177L141.2 175.3L139.3 122.5L131.2 97.2L117.2 97.4Z" fill="#FE9067"/>
<path d="M63.8 233.8L79.6 195.7L84.6 195.8L88 233.8L101.3 364H118.2L108.6 356.7C108.6 356.7 117.1 296.1 118.5 233.8C119 216.9 119 185 118.4 169.3L45.6 167.3C44.8 179.9 36.6 214.5 35.2 233.7C32.3 287.4 37.5 355.9 37.5 355.9L26.6 363.9H43.5L63.8 233.8Z" fill="#3E3F43"/>
<path d="M120.8 174.1C77.3 177.7 84.9 184.4 41.4 180.7L45.9 104.4L24.7 95.0999C24.7 95.0999 34.8 66.8999 36.7 64.4999C38.6 62.0999 66.6999 48.2999 72.1999 48.6999C74.3999 48.7999 77.6 48.9999 80.9 49.2999C84.2 48.9999 87.3999 48.7999 89.5999 48.6999C95.0999 48.3999 123.2 62.0999 125.1 64.4999C127 66.8999 137.1 95.0999 137.1 95.0999L115.9 104.4L120.8 174.1Z" fill="#3EA3F2"/>
<path d="M107.4 145C107.6 145 107.8 144.9 107.9 144.7C108.1 144.4 108 144 107.6 143.8C88.1 133.4 72.6 116.4 64 96.1C63.9 95.8 63.5 95.6 63.2 95.8C62.9 95.9 62.7 96.3 62.9 96.6C71.6 117.2 87.3 134.4 107 144.9C107.2 145 107.3 145 107.4 145Z" fill="#E54642"/>
<path d="M86.2 153.2C86.3 153.2 86.5 153.2 86.6 153.1C86.9 152.9 86.9 152.5 86.7 152.2C78.6 141.8 72.8 133 68.9 121.4C68.8 121.1 68.4 120.9 68.1 121C67.8 121.1 67.6 121.5 67.7 121.8C71.6 133.5 77.5 142.4 85.7 152.9C85.8 153.1 86 153.2 86.2 153.2Z" fill="#E54642"/>
<path d="M115.1 98.0001C115.5 98.0001 115.8 97.7001 115.7 97.3001C114.9 87.9001 117.1 78.3001 121.9 70.2001C122.1 69.9001 122 69.5001 121.7 69.3001C121.4 69.1001 121 69.2001 120.8 69.5001C115.9 77.8001 113.6 87.7001 114.4 97.3001C114.5 97.7001 114.7 98.0001 115.1 98.0001Z" fill="#E54642"/>
<path d="M93.2 34.5V49.2C93.2 49.2 81.3 61.8 70.4 49.5L71.3 34.5H93.2Z" fill="#FE9067"/>
<path d="M81.9 0.399968C94.7 0.799968 96.5 15 96.3 26.9C96.1 38.9 90.8 46.8 82.7 47.4C74.6 48 68.7 39.9 66.3 28.9C63.8 18 61.4 -0.200032 81.9 0.399968Z" fill="#FE9067"/>
<path d="M94.5 23.9C94.5 23.9 94.5 19 98.6 20.2C102.7 21.4 99 32.8 94.5 32C90 31.2 94.5 23.9 94.5 23.9Z" fill="#FE9067"/>
<path d="M68.6 27.3001C68.6 27.3001 68 22.5001 64.1 24.2001C60.2 25.9001 65.3 36.7001 69.7 35.4001C74 34.0001 68.6 27.3001 68.6 27.3001Z" fill="#FE9067"/>
<path d="M81.9 48.1001C82.2 48.1001 82.5 48.1001 82.8 48.0001C86.5 47.7001 89.7 46.0001 92.1 43.0001C92.3 42.7001 92.3 42.3001 92 42.1001C91.7 41.9001 91.3 41.9001 91.1 42.2001C88.9 44.9001 86 46.5001 82.7 46.7001C79.3 47.0001 76.1 45.6001 73.4 42.6001C73.2 42.3001 72.8 42.3001 72.5 42.6001C72.2 42.8001 72.2 43.2001 72.5 43.5001C75.2 46.6001 78.4 48.1001 81.9 48.1001Z" fill="#D47557"/>
<path d="M82.2 -2.49334e-05C92.7 0.499975 96.1 10.1 96.1 20.3C96.1 20.3 94.7 22.6 94.9 26L93.1 26.6L92.4 17.6C92.4 17.6 88.7 16.8 89.7 10.3C89.7 10.3 78.8 13.8 71.1 11.6C71.1 11.6 72.3 17.4 68.1 19L68.4 26.5H67C67 26.5 66.6 24.3 65.2 23.7C63 13.3 64.2 -0.900025 82.2 -2.49334e-05Z" fill="#D47557"/>
<path d="M77.0999 38.6999C76.8999 38.5999 76.7999 38.3999 76.8999 38.1999C76.9999 37.9999 77.1999 37.8999 77.3999 37.9999C78.9999 38.8999 80.7 39.1999 82.3 39.1999C84 39.1999 85.6999 38.7999 87.3999 37.9999C87.5999 37.8999 87.7999 37.9999 87.8999 38.1999C87.9999 38.3999 87.8999 38.5999 87.6999 38.6999C85.9999 39.5999 84.1999 39.9999 82.3999 39.9999C80.5999 39.9999 78.7999 39.5999 77.0999 38.6999Z" fill="#D47557"/>
<path d="M131.6 180.2C131.6 180.2 127 182.7 125.4 188.9C124.2 193.8 126.8 200.2 128.2 202.3C129 203.6 130 202.8 130.3 201.3C131 196.3 130.9 194 131.4 193C131.7 192.4 129.8 193.9 133 192.5L133.8 200.9C137.2 200 142.8 200.1 143.2 193.1C143.4 189.6 141.3 183 141.3 183C141.3 183 141.6 171.4 140.8 159.8L130.1 162.6C130.7 169.8 131.5 176.5 131.6 180.2Z" fill="#FE9067"/>
<path fill-rule="evenodd" clip-rule="evenodd" d="M102.2 51.5L118.8 59.7C119.1 59.8 119.2 60.1 119.2 60.4001V82H101.1V52.2C101.1 51.9 101.2 51.7 101.5 51.5C101.7 51.4 101.9 51.4 102.2 51.5Z" fill="#3E3F43"/>
<path fill-rule="evenodd" clip-rule="evenodd" d="M61.2 51.3999L44.6 58.7999C44.3 58.8999 44.1 59.1999 44.1 59.4999V81.9999H62.2V52.0999C62.2 51.7999 62.1 51.5999 61.8 51.3999C61.7 51.3999 61.4 51.3999 61.2 51.3999Z" fill="#3E3F43"/>
<path d="M162.2 66.1001H0V304.5H162.2V66.1001Z" fill="#FCCF31"/>
<path fill-rule="evenodd" clip-rule="evenodd" d="M81.1 231.9C106.8 231.9 127.7 211 127.7 185.3C127.7 159.6 106.8 138.7 81.1 138.7C55.4 138.7 34.5 159.6 34.5 185.3C34.5 211 55.4 231.9 81.1 231.9Z" fill="white"/>
<path fill-rule="evenodd" clip-rule="evenodd" d="M87.8 26.5999C88.4 26.5999 88.9 26.0999 88.9 25.4999C88.9 24.8999 88.4 24.3999 87.8 24.3999C87.2 24.3999 86.7 24.8999 86.7 25.4999C86.7 26.0999 87.2 26.5999 87.8 26.5999Z" fill="#3E3F43"/>
<path fill-rule="evenodd" clip-rule="evenodd" d="M75.1 26.5999C75.7 26.5999 76.2 26.0999 76.2 25.4999C76.2 24.8999 75.7 24.3999 75.1 24.3999C74.5 24.3999 74 24.8999 74 25.4999C74 26.0999 74.5 26.5999 75.1 26.5999Z" fill="#3E3F43"/>
</g>
<defs>
<clipPath id="clip0">
<rect width="162.2" height="364" fill="white"/>
</clipPath>
</defs>
</svg>
