<svg width="120" height="358" viewBox="0 0 120 358" fill="none" xmlns="http://www.w3.org/2000/svg">
<path d="M106.186 159.686C107.278 163.335 108.371 166.984 108.669 169.055C108.073 169.844 106.98 171.126 106.682 172.703C106.384 173.887 105.788 179.508 105.689 180.691C105.49 183.058 105.987 183.157 106.583 183.256C107.08 183.354 108.073 180.494 109.066 176.747C109.364 175.563 111.45 177.043 110.457 180.198C109.762 182.565 108.669 185.228 108.768 186.806C108.868 188.384 110.06 190.159 110.954 190.257C112.146 190.356 114.232 185.721 115.92 181.678C118.105 176.55 117.112 174.577 115.92 165.11C115.622 163.138 115.424 161.165 115.225 159.094L106.186 159.686Z" fill="#FE9067"/>
<path fill-rule="evenodd" clip-rule="evenodd" d="M46.1891 44.8952C52.2483 42.0353 62.0821 42.3312 70.0287 45.0925L71.618 46.8676L70.8233 51.6998H45.9904C45.9904 49.5302 44.6991 46.0786 46.1891 44.8952Z" fill="#3E3F43"/>
<path d="M76.0878 229.409L60.4927 192.132L55.5261 192.23L52.2482 229.508L38.9378 357.02H22.25L31.7859 349.821C31.7859 349.821 23.3427 290.453 21.9521 229.31C21.4554 212.743 21.4554 181.481 22.0514 166.096L59.0027 155.347L93.9675 164.223C94.6628 176.55 102.907 210.474 104.199 229.31C107.079 282.071 101.914 349.131 101.914 349.131L112.642 357.02H95.8548L76.0878 229.409Z" fill="#3E3F43"/>
<path d="M96.2523 167.773C84.7299 170.633 69.7308 173.197 58.5063 173.789L56.917 164.026L54.1357 173.887C45.3945 174.479 41.3219 175.564 19.5683 169.943L22.7469 102.587L20.661 109.49L51.9504 131.778L42.2159 145.288L2.48329 117.478L0 108.602L3.17861 96.7684C3.17861 96.7684 11.8205 63.6329 13.8071 61.2661C15.5951 59.0965 38.64 49.925 46.7852 48.2485V48.7416C50.6591 51.996 55.725 52.9822 59.1023 52.7849C65.3602 52.4891 68.7375 48.5444 69.2341 48.5444C78.3726 51.1084 99.3316 59.1951 101.02 61.2661C102.908 63.6329 112.94 93.514 112.94 93.514L117.013 125.663L119.099 166.491L104.497 167.477L92.3784 102.39L96.2523 167.773Z" fill="#3EA3F2"/>
<path d="M69.2341 34.0474V48.4455C69.2341 47.8538 65.2609 52.8833 58.2083 52.8833C55.0297 52.8833 50.8578 51.8971 46.6859 48.7414L47.6792 34.0474H69.2341Z" fill="#FE9067"/>
<path d="M58.109 0.517199C70.7241 0.911669 72.5121 14.9154 72.4128 26.5522C72.2141 38.2877 66.9495 46.0785 58.9037 46.6702C50.8578 47.2619 45.0966 39.2739 42.6133 28.6232C40.3287 17.8739 37.9447 -0.0745061 58.109 0.517199Z" fill="#FE9067"/>
<path d="M70.5256 23.5942C70.5256 23.5942 70.5256 18.8605 74.4988 20.0439C78.4721 21.2273 74.8961 32.3711 70.5256 31.5822C66.155 30.7932 70.5256 23.5942 70.5256 23.5942Z" fill="#FE9067"/>
<path d="M44.9974 26.9468C44.9974 26.9468 44.4014 22.2131 40.5275 23.8896C36.6535 25.5661 41.7194 36.2168 45.9907 34.8362C50.262 33.5541 44.9974 26.9468 44.9974 26.9468Z" fill="#FE9067"/>
<path d="M58.109 47.3609C58.407 47.3609 58.705 47.3609 59.003 47.3609C62.6783 47.0651 65.7575 45.3886 68.1415 42.5287C68.3402 42.2328 68.3402 41.8384 68.0422 41.6411C67.7442 41.4439 67.3468 41.4439 67.1482 41.7397C64.9629 44.4024 62.0823 45.8817 58.8043 46.1775C55.4271 46.4734 52.3478 45.0927 49.6658 42.1342C49.4672 41.8384 49.0698 41.8384 48.7718 42.1342C48.4738 42.3314 48.4738 42.7259 48.7718 43.0218C51.4538 45.7831 54.6324 47.3609 58.109 47.3609Z" fill="#D47557"/>
<path d="M53.1425 38.1895C56.4204 39.8659 59.7977 39.7673 63.1749 38.1895" stroke="#D47557" stroke-width="0.5669" stroke-miterlimit="10" stroke-linecap="round" stroke-linejoin="round"/>
<path d="M58.6053 0.320213C69.0352 0.911918 72.5118 10.3792 72.5118 20.3396C72.5118 20.3396 71.1211 22.6078 71.3198 25.9608L68.9358 17.6769C62.2806 6.92759 55.3274 24.4815 47.7782 11.7599C47.7782 11.7599 44.9969 13.2391 44.6989 19.0576L43.7056 26.4539C43.7056 26.4539 43.3083 24.2843 41.9176 23.6926C39.5337 13.4363 40.7257 -0.567345 58.6053 0.320213Z" fill="#3E3F43"/>
<path fill-rule="evenodd" clip-rule="evenodd" d="M69.9294 45.0927C70.9228 45.5858 71.5187 46.0789 71.6181 46.572L72.5121 49.925C72.8101 50.4181 72.9094 51.0098 72.3134 51.3057C54.0364 62.1536 60.7909 61.4633 43.8052 51.207C43.3086 50.9112 43.3086 50.3195 43.6066 49.8264L44.5006 46.4734C44.6992 45.9803 44.9972 45.4872 46.0899 44.8955C44.3019 47.2623 50.1625 50.1222 57.7117 52.8835C65.3602 50.0236 71.7174 47.4596 69.9294 45.0927Z" fill="#3E3F43"/>
<path d="M99.2323 61.8577C94.7623 61.5619 91.5837 62.4494 88.3058 65.6052" stroke="#3E3F43" stroke-width="1.1339" stroke-miterlimit="10" stroke-linecap="round" stroke-linejoin="round"/>
<path d="M29.303 84.3425C29.601 93.1195 24.4358 93.514 23.2438 100.812" stroke="#3E3F43" stroke-width="1.1339" stroke-miterlimit="10" stroke-linecap="round" stroke-linejoin="round"/>
<path fill-rule="evenodd" clip-rule="evenodd" d="M59.897 68.8596C60.3936 68.8596 60.791 68.4651 60.791 67.972C60.791 67.4789 60.3936 67.0845 59.897 67.0845C59.4003 67.0845 59.003 67.4789 59.003 67.972C59.1023 68.4651 59.4003 68.8596 59.897 68.8596Z" fill="white"/>
<path fill-rule="evenodd" clip-rule="evenodd" d="M59.897 83.948C60.3936 83.948 60.791 83.5535 60.791 83.0604C60.791 82.5673 60.3936 82.1729 59.897 82.1729C59.4003 82.1729 59.003 82.5673 59.003 83.0604C59.1023 83.5535 59.4003 83.948 59.897 83.948Z" fill="white"/>
<path fill-rule="evenodd" clip-rule="evenodd" d="M59.897 99.0364C60.3936 99.0364 60.791 98.6419 60.791 98.1488C60.791 97.6557 60.3936 97.2612 59.897 97.2612C59.4003 97.2612 59.003 97.6557 59.003 98.1488C59.1023 98.6419 59.4003 99.0364 59.897 99.0364Z" fill="white"/>
<path fill-rule="evenodd" clip-rule="evenodd" d="M59.897 114.223C60.3936 114.223 60.791 113.829 60.791 113.336C60.791 112.843 60.3936 112.448 59.897 112.448C59.4003 112.448 59.003 112.843 59.003 113.336C59.1023 113.829 59.4003 114.223 59.897 114.223Z" fill="white"/>
<path fill-rule="evenodd" clip-rule="evenodd" d="M59.897 129.312C60.3936 129.312 60.791 128.917 60.791 128.424C60.791 127.931 60.3936 127.537 59.897 127.537C59.4003 127.537 59.003 127.931 59.003 128.424C59.003 128.917 59.4003 129.312 59.897 129.312Z" fill="white"/>
<path fill-rule="evenodd" clip-rule="evenodd" d="M59.897 144.401C60.3936 144.401 60.791 144.006 60.791 143.513C60.791 143.02 60.3936 142.625 59.897 142.625C59.4003 142.625 59.003 143.02 59.003 143.513C59.1023 144.006 59.4003 144.401 59.897 144.401Z" fill="white"/>
<path fill-rule="evenodd" clip-rule="evenodd" d="M59.897 159.588C60.3936 159.588 60.791 159.193 60.791 158.7C60.791 158.207 60.3936 157.813 59.897 157.813C59.4003 157.813 59.003 158.207 59.003 158.7C59.1023 159.193 59.4003 159.588 59.897 159.588Z" fill="white"/>
<path d="M47.4807 128.72L51.8512 131.778L42.1167 145.387L22.2504 131.482" stroke="#3E3F43" stroke-width="1.1339" stroke-miterlimit="10" stroke-linecap="round" stroke-linejoin="round"/>
<path d="M36.7528 120.929L22.2504 110.673" stroke="#3E3F43" stroke-width="1.1339" stroke-miterlimit="10" stroke-linecap="round" stroke-linejoin="round"/>
<path fill-rule="evenodd" clip-rule="evenodd" d="M58.7049 135.13L61.5855 137.3C61.8835 137.596 62.0822 137.892 62.1815 138.286C62.1815 138.779 62.0822 139.075 61.7842 139.371L50.957 151.402C50.4604 151.994 49.5664 152.093 48.9704 151.599L47.9771 150.909C47.3811 150.416 47.1824 149.528 47.6791 148.937L56.6189 135.426C56.8176 135.13 57.2149 134.834 57.6122 134.736C58.0096 134.736 58.4069 134.834 58.7049 135.13ZM69.7307 123.888C71.7173 125.466 72.1146 128.326 70.6247 130.298C70.5253 130.397 70.3267 130.594 70.2273 130.693C69.7307 131.186 68.8367 131.284 68.2407 130.791L63.2741 126.945C62.6781 126.452 62.4795 125.663 62.8768 124.973C62.9761 124.775 63.0755 124.677 63.1748 124.48C64.8634 122.704 67.7441 122.31 69.7307 123.888ZM61.2875 126.846L68.936 132.665C69.6314 133.158 69.7307 134.046 69.234 134.736L66.7507 137.892C66.2541 138.582 65.2608 138.681 64.6648 138.187L57.0162 132.369C56.3209 131.876 56.2216 130.988 56.7182 130.298L59.2015 127.142C59.7975 126.452 60.6915 126.353 61.2875 126.846Z" fill="#3E3F43"/>
<path d="M51.4541 133.158C51.4541 133.158 60.6919 138.286 62.0826 140.949C62.7779 142.132 61.4866 144.302 60.4933 144.105C60.9899 145.19 59.7979 146.373 58.5066 146.472C58.4073 147.655 57.6126 148.247 56.3213 147.852C56.6193 151.008 50.2621 149.43 47.7788 147.162C45.6928 145.387 44.0042 143.513 44.0042 143.513L51.4541 133.158Z" fill="#FE9067"/>
<path fill-rule="evenodd" clip-rule="evenodd" d="M41.5208 140.85C42.0175 140.85 42.4148 140.456 42.4148 139.963C42.4148 139.47 42.0175 139.075 41.5208 139.075C41.0242 139.075 40.6268 139.47 40.6268 139.963C40.6268 140.456 41.0242 140.85 41.5208 140.85Z" fill="white"/>
<path fill-rule="evenodd" clip-rule="evenodd" d="M66.7508 137.991L69.2341 134.835C69.7307 134.144 69.6314 133.257 68.9361 132.764L61.2876 126.945C60.5922 126.452 59.6983 126.551 59.2016 127.241L56.7183 130.397C56.2217 131.087 56.321 131.975 57.0163 132.468L64.6648 138.286C65.2608 138.681 66.2541 138.582 66.7508 137.991Z" fill="white"/>
<path fill-rule="evenodd" clip-rule="evenodd" d="M55.9238 55.3486H59.0031C59.2018 55.3486 59.4004 55.4472 59.4004 55.6445V60.1809C59.4004 60.3781 59.2018 60.4768 59.0031 60.4768H55.9238C55.7252 60.4768 55.5265 60.3781 55.5265 60.1809V55.6445C55.5265 55.4472 55.7252 55.3486 55.9238 55.3486Z" fill="white"/>
<path fill-rule="evenodd" clip-rule="evenodd" d="M60.6913 55.3489L67.0486 53.4752C67.2472 53.3766 67.4459 53.5738 67.4459 53.7711L67.2472 61.8577C67.2472 62.0549 67.0486 62.2522 66.8499 62.1536L60.6913 60.4771C60.4927 60.3784 60.294 60.3784 60.294 60.1812V55.6448C60.294 55.4476 60.4927 55.4476 60.6913 55.3489Z" fill="white"/>
<path fill-rule="evenodd" clip-rule="evenodd" d="M54.2353 55.3489L47.878 53.4752C47.6794 53.3766 47.4807 53.5738 47.4807 53.7711L47.6794 61.8577C47.6794 62.0549 47.878 62.2522 48.0767 62.1536L54.2353 60.3784C54.4339 60.2798 54.6326 60.2798 54.6326 60.0826V55.5462C54.6326 55.4476 54.4339 55.4476 54.2353 55.3489Z" fill="white"/>
<path fill-rule="evenodd" clip-rule="evenodd" d="M63.0757 26.9469C63.6717 26.9469 64.1683 26.4538 64.1683 25.8621C64.1683 25.2704 63.6717 24.7773 63.0757 24.7773C62.4797 24.7773 61.983 25.2704 61.983 25.8621C61.983 26.4538 62.4797 26.9469 63.0757 26.9469Z" fill="#3E3F43"/>
<path fill-rule="evenodd" clip-rule="evenodd" d="M50.4602 26.9469C51.0562 26.9469 51.5528 26.4538 51.5528 25.8621C51.5528 25.2704 51.0562 24.7773 50.4602 24.7773C49.8642 24.7773 49.3676 25.2704 49.3676 25.8621C49.3676 26.4538 49.8642 26.9469 50.4602 26.9469Z" fill="#3E3F43"/>
</svg>
