<svg width="116" height="365" viewBox="0 0 116 365" fill="none" xmlns="http://www.w3.org/2000/svg">
<g clip-path="url(#clip0)">
<path d="M21.9 97.2001C21.9 97.2001 16.7 121 16.1 125.2C15.6 129.4 16 149.4 16 149.4L7.8 146.8L0 122.1L8 96.9001L21.9 97.2001Z" fill="#FE9067"/>
<path d="M93.4 99.7001C93.4 99.7001 98.6 123.5 99.2 127.7C99.8 131.9 99.3 151.9 99.3 151.9L107.5 149.3L115.3 124.6L107.3 99.4001L93.4 99.7001Z" fill="#FE9067"/>
<path d="M40.2 235.3L55.9 197.4L60.9 197.5L64.2 235.3L77.6 364.7H94.4L84.8 357.4C84.8 357.4 93.3 297.1 94.7 235.2C95.2 218.4 95.2 186.7 94.6 171.1L22.2 169.1C21.4 181.6 13.2 216 11.9 235.2C9.00002 288.6 14.2 356.7 14.2 356.7L3.40002 364.7H20.2L40.2 235.3Z" fill="#3E3F43"/>
<path d="M97 176C53.7 179.6 61.3 186.2 18.1 182.6L22.6 106.8L1.59998 97.6C1.59998 97.6 11.6 69.6 13.6 67.2C15.6 64.8 43.4 51.1 48.9 51.5C51.1 51.6 54.3 51.8 57.5 52.1C60.8 51.8 63.9 51.6 66.1 51.5C71.6 51.1 99.5 64.8 101.4 67.2C103.4 69.6 113.4 97.6 113.4 97.6L92.3 106.8L97 176Z" fill="#3EA3F2"/>
<path d="M83.5999 147.1C83.7999 147.1 84.0999 147 84.1999 146.8C84.2999 146.5 84.1999 146.1 83.8999 145.9C64.4999 135.6 49.0999 118.7 40.5999 98.4C40.4999 98.1 40.0999 97.9 39.7999 98.1C39.4999 98.2 39.2999 98.6 39.4999 98.9C48.1999 119.4 63.7999 136.5 83.3999 146.9C83.3999 147 83.4999 147.1 83.5999 147.1Z" fill="#3E3F43"/>
<path d="M62.5 155.2C62.6 155.2 62.8 155.2 62.9 155.1C63.2 154.9 63.2 154.5 63 154.2C54.9 143.9 49.2 135.1 45.4 123.6C45.3 123.3 44.9 123.1 44.6 123.2C44.3 123.3 44.1 123.7 44.2 124C48.1 135.7 53.9 144.5 62 155C62.1 155.1 62.3 155.2 62.5 155.2Z" fill="#3E3F43"/>
<path d="M91.2 100.3C91.6 100.3 91.9 100 91.8 99.6001C91 90.3001 93.2 80.8001 98 72.7001C98.2 72.4001 98.1 72.0001 97.8 71.8001C97.5 71.6001 97.1 71.7001 96.9 72.0001C92 80.2001 89.7 90.1001 90.5 99.6001C90.6 100.1 90.9 100.3 91.2 100.3Z" fill="#3E3F43"/>
<path d="M69.4 36.5V51.1C69.4 51.1 57.6 63.6 46.7 51.4L47.7 36.5H69.4Z" fill="#FE9067"/>
<path d="M58.3 2.50007C71 2.90007 72.8 17.0001 72.6 28.9001C72.4 40.8001 67.1 48.7001 59 49.3001C51 49.9001 45.1 41.9001 42.7 31.0001C40.3 20.1001 37.9 1.90007 58.3 2.50007Z" fill="#FE9067"/>
<path d="M70.8 25.9C70.8 25.9 70.8 21.1 74.8 22.3C78.9 23.5 75.2 34.8 70.8 34C66.3 33.2 70.8 25.9 70.8 25.9Z" fill="#FE9067"/>
<path d="M45.0001 29.3001C45.0001 29.3001 44.4001 24.5001 40.5001 26.2001C36.7001 27.9001 41.7001 38.7001 46.0001 37.3001C50.3001 36.0001 45.0001 29.3001 45.0001 29.3001Z" fill="#FE9067"/>
<path d="M58.2 50.0002C58.5 50.0002 58.8 50.0002 59.1 50.0002C62.7 49.7002 65.9 48.0002 68.3 45.1002C68.5 44.8002 68.5 44.4002 68.2 44.2002C67.9 44.0002 67.5 44.0002 67.3 44.3002C65.1 47.0002 62.2 48.5002 59 48.8002C55.6 49.1002 52.5 47.7002 49.8 44.7002C49.5 44.4002 49.1 44.4002 48.9 44.7002C48.7 45.0002 48.6 45.3002 48.9 45.6002C51.5 48.4002 54.8 50.0002 58.2 50.0002Z" fill="#D47557"/>
<path d="M58.6001 2.20018C69.0001 2.70018 72.4001 12.3002 72.4001 22.4002C72.4001 22.4002 71.0001 24.7002 71.2001 28.1002L69.4001 28.7002L68.7001 19.8002C68.7001 19.8002 65.1001 19.0002 66.0001 12.6002C66.0001 12.6002 55.2001 16.0002 47.5001 13.8002C47.5001 13.8002 48.7001 19.6002 44.5001 21.2002L44.8001 28.7002H43.4001C43.4001 28.7002 43.0001 26.5002 41.6001 26.0002C39.4001 15.4002 40.6001 1.20018 58.6001 2.20018Z" fill="#D47557"/>
<path d="M53.6 40.3C56.9 42 60.4 41.9 63.9 40.3" stroke="#D47557" stroke-width="1.5024" stroke-miterlimit="10" stroke-linecap="round" stroke-linejoin="round"/>
<path d="M53.6 40.3C56.9 42 60.4 41.9 63.9 40.3" stroke="#D47557" stroke-width="1.5024" stroke-miterlimit="10" stroke-linecap="round" stroke-linejoin="round"/>
<path fill-rule="evenodd" clip-rule="evenodd" d="M57.2 22.0001C64.3 21.5001 69.1 23.1001 71.3 22.9001C74.3 22.6001 74.7 21.3001 72.7 16.3001C72.6 16.1001 72.5 15.8001 72.2 15.6001H72.5C72.5 15.0001 72.5 14.3001 72.5 13.7001C71.7 2.90007 62.9 -0.499927 55 7.34963e-05C47.1 0.500073 40.2 5.00007 41 15.8001C41 16.5001 41.1 17.1001 41.3 17.7001H41.6C41.3 17.9001 41.2 18.2001 41.2 18.4001C40.2 24.6001 41 25.1001 45.9 24.6001C48.2 24.3001 51.7 22.3001 57.2 22.0001Z" fill="#3EA3F2"/>
<path d="M54 15.0002C60.3 14.4002 66.5 14.5002 72.5 15.2002" stroke="#3E3F43" stroke-width="1.1339" stroke-miterlimit="10" stroke-linecap="round" stroke-linejoin="round"/>
<path d="M46.9001 16.1001C45.0001 16.5001 43.2 16.9001 41.3 17.4001" stroke="#3E3F43" stroke-width="1.1339" stroke-miterlimit="10" stroke-linecap="round" stroke-linejoin="round"/>
<path d="M100.9 58.9001H15.4V149H100.9V58.9001Z" fill="#FCCF31"/>
<path d="M92.6 136.4L85.2 138.2L85.5 140.6L90.3 153L104.4 152.6L107.5 149.3L108.6 145.8L92.6 136.4Z" fill="#FE9067"/>
<path fill-rule="evenodd" clip-rule="evenodd" d="M77.2 96.6C84.5 96.6 90.5 90.6 90.5 83.3C90.5 76 84.5 70 77.2 70C69.9 70 63.9 76 63.9 83.3C63.9 90.6 69.9 96.6 77.2 96.6Z" fill="white"/>
<path d="M24.2 136.4L31.5 138.2L31.3 140.6L26.5 153L12.4 152.6L9.19998 149.3L8.09998 145.8L24.2 136.4Z" fill="#FE9067"/>
<path fill-rule="evenodd" clip-rule="evenodd" d="M63.7999 27.7C64.3999 27.7 64.9 27.2 64.9 26.6C64.9 26 64.3999 25.5 63.7999 25.5C63.1999 25.5 62.7 26 62.7 26.6C62.7 27.2 63.1999 27.7 63.7999 27.7Z" fill="#3E3F43"/>
<path fill-rule="evenodd" clip-rule="evenodd" d="M51.2 27.7C51.8 27.7 52.3 27.2 52.3 26.6C52.3 26 51.8 25.5 51.2 25.5C50.6 25.5 50 26 50 26.6C50 27.2 50.5 27.7 51.2 27.7Z" fill="#3E3F43"/>
</g>
<defs>
<clipPath id="clip0">
<rect width="115.3" height="364.8" fill="white"/>
</clipPath>
</defs>
</svg>
